<svg width="1200" height="630" viewBox="0 0 1200 630" fill="none" xmlns="http://www.w3.org/2000/svg">
  <!-- Background -->
  <rect width="1200" height="630" fill="#1a1a1a"/>
  
  <!-- Books grid illustration in the background -->
  <g opacity="0.1">
    <rect x="50" y="150" width="120" height="170" rx="5" fill="#FFD700"/>
    <rect x="190" y="150" width="120" height="170" rx="5" fill="#FFD700"/>
    <rect x="330" y="150" width="120" height="170" rx="5" fill="#FFD700"/>
    <rect x="470" y="150" width="120" height="170" rx="5" fill="#FFD700"/>
    <rect x="610" y="150" width="120" height="170" rx="5" fill="#FFD700"/>
    <rect x="750" y="150" width="120" height="170" rx="5" fill="#FFD700"/>
    <rect x="890" y="150" width="120" height="170" rx="5" fill="#FFD700"/>
    <rect x="1030" y="150" width="120" height="170" rx="5" fill="#FFD700"/>
    
    <rect x="50" y="340" width="120" height="170" rx="5" fill="#FFD700"/>
    <rect x="190" y="340" width="120" height="170" rx="5" fill="#FFD700"/>
    <rect x="330" y="340" width="120" height="170" rx="5" fill="#FFD700"/>
    <rect x="470" y="340" width="120" height="170" rx="5" fill="#FFD700"/>
    <rect x="610" y="340" width="120" height="170" rx="5" fill="#FFD700"/>
    <rect x="750" y="340" width="120" height="170" rx="5" fill="#FFD700"/>
    <rect x="890" y="340" width="120" height="170" rx="5" fill="#FFD700"/>
    <rect x="1030" y="340" width="120" height="170" rx="5" fill="#FFD700"/>
  </g>
  
  <!-- Search icon -->
  <circle cx="450" cy="315" r="100" stroke="#FFD700" stroke-width="15" fill="none"/>
  <line x1="520" y1="385" x2="600" y2="465" stroke="#FFD700" stroke-width="15" stroke-linecap="round"/>
  
  <!-- Title -->
  <text x="600" y="280" font-family="Arial, sans-serif" font-size="60" font-weight="bold" fill="white" text-anchor="middle">SEARCH OUR LIBRARY</text>
  
  <!-- Subtitle -->
  <text x="600" y="340" font-family="Arial, sans-serif" font-size="30" fill="#FFD700" text-anchor="middle">Find your next great read at EbookAura</text>
  
  <!-- Categories list -->
  <text x="600" y="400" font-family="Arial, sans-serif" font-size="24" fill="#CCCCCC" text-anchor="middle">Fiction • Non-Fiction • Science • History • Technology • Biography</text>
  
  <!-- Site name -->
  <text x="600" y="550" font-family="Arial, sans-serif" font-size="40" font-weight="bold" fill="#FFD700" text-anchor="middle">EbookAura</text>
  <text x="600" y="590" font-family="Arial, sans-serif" font-size="25" fill="white" text-anchor="middle">Your Digital Library Companion</text>
</svg> 